<?xml version='1.0' encoding='utf-8'?>
<mlt LC_NUMERIC="C" producer="main_bin" version="6.25.0" root="E:/Dropbox/PHD/OneDrive - UWE Bristol/Dito PhD/Written Research/User Study 2021/User Study Design">
 <profile frame_rate_num="30" sample_aspect_num="1" display_aspect_den="9" colorspace="709" progressive="1" description="HD 1080p 30 fps" display_aspect_num="16" frame_rate_den="1" width="1920" height="1080" sample_aspect_den="1"/>
 <producer id="producer1" in="00:00:00.000" out="00:00:07.300">
  <property name="length">220</property>
  <property name="eof">pause</property>
  <property name="resource">apologise.wav</property>
  <property name="meta.media.nb_streams">1</property>
  <property name="meta.media.0.stream.type">audio</property>
  <property name="meta.media.0.codec.sample_fmt">s16</property>
  <property name="meta.media.0.codec.sample_rate">16000</property>
  <property name="meta.media.0.codec.channels">1</property>
  <property name="meta.media.0.codec.name">pcm_s16le</property>
  <property name="meta.media.0.codec.long_name">PCM signed 16-bit little-endian</property>
  <property name="meta.media.0.codec.bit_rate">256000</property>
  <property name="seekable">1</property>
  <property name="audio_index">0</property>
  <property name="video_index">-1</property>
  <property name="mute_on_pause">1</property>
  <property name="mlt_service">avformat</property>
  <property name="kdenlive:clipname"/>
  <property name="kdenlive:folderid">-1</property>
  <property name="kdenlive:id">2</property>
  <property name="kdenlive:file_size">235084</property>
  <property name="kdenlive:file_hash">f338c9e9bb290a5c3bedbd4efc72f456</property>
  <property name="kdenlive:audio_max">1</property>
  <property name="global_feed">1</property>
 </producer>
 <producer id="producer0" in="00:00:00.000" out="00:00:03.000">
  <property name="length">91</property>
  <property name="eof">pause</property>
  <property name="resource">confirm.wav</property>
  <property name="meta.media.nb_streams">1</property>
  <property name="meta.media.0.stream.type">audio</property>
  <property name="meta.media.0.codec.sample_fmt">s16</property>
  <property name="meta.media.0.codec.sample_rate">16000</property>
  <property name="meta.media.0.codec.channels">1</property>
  <property name="meta.media.0.codec.name">pcm_s16le</property>
  <property name="meta.media.0.codec.long_name">PCM signed 16-bit little-endian</property>
  <property name="meta.media.0.codec.bit_rate">256000</property>
  <property name="seekable">1</property>
  <property name="audio_index">0</property>
  <property name="video_index">-1</property>
  <property name="mute_on_pause">1</property>
  <property name="mlt_service">avformat</property>
  <property name="kdenlive:clipname"/>
  <property name="kdenlive:folderid">-1</property>
  <property name="kdenlive:id">3</property>
  <property name="kdenlive:file_size">97484</property>
  <property name="kdenlive:file_hash">f498e76250299cd652ae2e1512e0ee55</property>
  <property name="kdenlive:audio_max">1</property>
  <property name="kdenlive:rating">4</property>
  <property name="global_feed">1</property>
 </producer>
 <producer id="producer2" in="00:00:00.000" out="00:00:05.133">
  <property name="length">155</property>
  <property name="eof">pause</property>
  <property name="resource">help.wav</property>
  <property name="meta.media.nb_streams">1</property>
  <property name="meta.media.0.stream.type">audio</property>
  <property name="meta.media.0.codec.sample_fmt">s16</property>
  <property name="meta.media.0.codec.sample_rate">16000</property>
  <property name="meta.media.0.codec.channels">1</property>
  <property name="meta.media.0.codec.name">pcm_s16le</property>
  <property name="meta.media.0.codec.long_name">PCM signed 16-bit little-endian</property>
  <property name="meta.media.0.codec.bit_rate">256000</property>
  <property name="seekable">1</property>
  <property name="audio_index">0</property>
  <property name="video_index">-1</property>
  <property name="mute_on_pause">1</property>
  <property name="mlt_service">avformat</property>
  <property name="kdenlive:clipname"/>
  <property name="kdenlive:folderid">-1</property>
  <property name="kdenlive:id">4</property>
  <property name="kdenlive:file_size">165164</property>
  <property name="kdenlive:file_hash">63f48a286325fd75adf7044c268f9068</property>
  <property name="kdenlive:audio_max">3</property>
  <property name="global_feed">1</property>
 </producer>
 <producer id="producer5" in="00:00:00.000" out="00:00:06.600">
  <property name="length">199</property>
  <property name="eof">pause</property>
  <property name="resource">joke.wav</property>
  <property name="meta.media.nb_streams">1</property>
  <property name="meta.media.0.stream.type">audio</property>
  <property name="meta.media.0.codec.sample_fmt">s16</property>
  <property name="meta.media.0.codec.sample_rate">16000</property>
  <property name="meta.media.0.codec.channels">1</property>
  <property name="meta.media.0.codec.name">pcm_s16le</property>
  <property name="meta.media.0.codec.long_name">PCM signed 16-bit little-endian</property>
  <property name="meta.media.0.codec.bit_rate">256000</property>
  <property name="seekable">1</property>
  <property name="audio_index">0</property>
  <property name="video_index">-1</property>
  <property name="mute_on_pause">1</property>
  <property name="mlt_service">avformat</property>
  <property name="kdenlive:clipname"/>
  <property name="kdenlive:folderid">-1</property>
  <property name="kdenlive:id">5</property>
  <property name="kdenlive:file_size">212524</property>
  <property name="kdenlive:file_hash">152293d728495f2faeef7541d74cb574</property>
  <property name="kdenlive:audio_max">1</property>
  <property name="global_feed">1</property>
 </producer>
 <producer id="producer3" in="00:00:00.000" out="00:00:01.633">
  <property name="length">50</property>
  <property name="eof">pause</property>
  <property name="resource">ohno.wav</property>
  <property name="meta.media.nb_streams">1</property>
  <property name="meta.media.0.stream.type">audio</property>
  <property name="meta.media.0.codec.sample_fmt">s16</property>
  <property name="meta.media.0.codec.sample_rate">16000</property>
  <property name="meta.media.0.codec.channels">1</property>
  <property name="meta.media.0.codec.name">pcm_s16le</property>
  <property name="meta.media.0.codec.long_name">PCM signed 16-bit little-endian</property>
  <property name="meta.media.0.codec.bit_rate">256000</property>
  <property name="seekable">1</property>
  <property name="audio_index">0</property>
  <property name="video_index">-1</property>
  <property name="mute_on_pause">1</property>
  <property name="mlt_service">avformat</property>
  <property name="kdenlive:clipname"/>
  <property name="kdenlive:folderid">-1</property>
  <property name="kdenlive:id">6</property>
  <property name="kdenlive:file_size">53644</property>
  <property name="kdenlive:file_hash">f0be66854488b802fb698d480cee8319</property>
  <property name="kdenlive:audio_max">1</property>
  <property name="global_feed">1</property>
 </producer>
 <producer id="producer6" in="00:00:00.000" out="00:00:03.600">
  <property name="length">109</property>
  <property name="eof">pause</property>
  <property name="resource">sharing.wav</property>
  <property name="meta.media.nb_streams">1</property>
  <property name="meta.media.0.stream.type">audio</property>
  <property name="meta.media.0.codec.sample_fmt">s16</property>
  <property name="meta.media.0.codec.sample_rate">16000</property>
  <property name="meta.media.0.codec.channels">1</property>
  <property name="meta.media.0.codec.name">pcm_s16le</property>
  <property name="meta.media.0.codec.long_name">PCM signed 16-bit little-endian</property>
  <property name="meta.media.0.codec.bit_rate">256000</property>
  <property name="seekable">1</property>
  <property name="audio_index">0</property>
  <property name="video_index">-1</property>
  <property name="mute_on_pause">1</property>
  <property name="mlt_service">avformat</property>
  <property name="kdenlive:clipname"/>
  <property name="kdenlive:folderid">-1</property>
  <property name="kdenlive:id">7</property>
  <property name="kdenlive:file_size">116204</property>
  <property name="kdenlive:file_hash">d79c91e6300ec8e24fea7ad325d892f5</property>
  <property name="kdenlive:audio_max">1</property>
  <property name="global_feed">1</property>
 </producer>
 <producer id="producer4" in="00:00:00.000" out="00:00:01.767">
  <property name="length">54</property>
  <property name="eof">pause</property>
  <property name="resource">silent.wav</property>
  <property name="meta.media.nb_streams">1</property>
  <property name="meta.media.0.stream.type">audio</property>
  <property name="meta.media.0.codec.sample_fmt">s16</property>
  <property name="meta.media.0.codec.sample_rate">16000</property>
  <property name="meta.media.0.codec.channels">1</property>
  <property name="meta.media.0.codec.name">pcm_s16le</property>
  <property name="meta.media.0.codec.long_name">PCM signed 16-bit little-endian</property>
  <property name="meta.media.0.codec.bit_rate">256000</property>
  <property name="seekable">1</property>
  <property name="audio_index">0</property>
  <property name="video_index">-1</property>
  <property name="mute_on_pause">1</property>
  <property name="mlt_service">avformat</property>
  <property name="kdenlive:clipname"/>
  <property name="kdenlive:folderid">-1</property>
  <property name="kdenlive:id">8</property>
  <property name="kdenlive:file_size">57164</property>
  <property name="kdenlive:file_hash">1b7197b4ba32c3de596f52daba746f5b</property>
  <property name="kdenlive:audio_max">3</property>
  <property name="global_feed">1</property>
 </producer>
 <producer id="producer8" in="00:00:00.000" out="00:01:06.433">
  <property name="length">00:01:06.467</property>
  <property name="eof">pause</property>
  <property name="resource">YumiBig.jpg</property>
  <property name="ttl">25</property>
  <property name="aspect_ratio">1</property>
  <property name="progressive">1</property>
  <property name="seekable">1</property>
  <property name="meta.media.width">5184</property>
  <property name="meta.media.height">3456</property>
  <property name="mlt_service">qimage</property>
  <property name="kdenlive:clipname"/>
  <property name="kdenlive:duration">00:00:05.000</property>
  <property name="kdenlive:folderid">-1</property>
  <property name="kdenlive:id">9</property>
  <property name="kdenlive:file_size">870681</property>
  <property name="kdenlive:file_hash">05c0792dd62d4663096ec7a45606a43f</property>
  <property name="global_feed">1</property>
  <property name="force_aspect_num">1</property>
  <property name="force_aspect_den">1</property>
  <property name="force_aspect_ratio">1.000000</property>
 </producer>
 <producer id="producer7" in="00:00:00.000" out="00:01:05.700">
  <property name="length">1972</property>
  <property name="eof">pause</property>
  <property name="resource">robotface.mp4</property>
  <property name="audio_index">1</property>
  <property name="video_index">0</property>
  <property name="mute_on_pause">0</property>
  <property name="mlt_service">avformat-novalidate</property>
  <property name="meta.media.nb_streams">2</property>
  <property name="meta.media.0.stream.type">video</property>
  <property name="meta.media.0.stream.frame_rate">15</property>
  <property name="meta.media.0.stream.sample_aspect_ratio">0</property>
  <property name="meta.media.0.codec.width">1600</property>
  <property name="meta.media.0.codec.height">900</property>
  <property name="meta.media.0.codec.rotate">0</property>
  <property name="meta.media.0.codec.frame_rate">15</property>
  <property name="meta.media.0.codec.pix_fmt">yuv444p</property>
  <property name="meta.media.0.codec.sample_aspect_ratio">1</property>
  <property name="meta.media.0.codec.colorspace">709</property>
  <property name="meta.media.0.codec.name">h264</property>
  <property name="meta.media.0.codec.long_name">H.264 / AVC / MPEG-4 AVC / MPEG-4 part 10</property>
  <property name="meta.media.0.codec.bit_rate">634413</property>
  <property name="meta.attr.0.stream.creation_time.markup">2021-03-03T03:24:32.000000Z</property>
  <property name="meta.attr.0.stream.language.markup">eng</property>
  <property name="meta.attr.0.stream.handler_name.markup">VideoHandler</property>
  <property name="meta.media.1.stream.type">audio</property>
  <property name="meta.media.1.codec.sample_fmt">fltp</property>
  <property name="meta.media.1.codec.sample_rate">44100</property>
  <property name="meta.media.1.codec.channels">1</property>
  <property name="meta.media.1.codec.name">mp3float</property>
  <property name="meta.media.1.codec.long_name">MP3 (MPEG audio layer 3)</property>
  <property name="meta.media.1.codec.bit_rate">31850</property>
  <property name="meta.attr.1.stream.creation_time.markup">2021-03-03T03:24:32.000000Z</property>
  <property name="meta.attr.1.stream.language.markup">eng</property>
  <property name="meta.attr.1.stream.handler_name.markup">SoundHandler</property>
  <property name="meta.attr.major_brand.markup">mp42</property>
  <property name="meta.attr.minor_version.markup">0</property>
  <property name="meta.attr.compatible_brands.markup">mp42mp41isomiso2</property>
  <property name="meta.attr.creation_time.markup">2021-03-03T03:24:32.000000Z</property>
  <property name="meta.attr.encoder.markup">x264</property>
  <property name="seekable">1</property>
  <property name="meta.media.sample_aspect_num">1</property>
  <property name="meta.media.sample_aspect_den">1</property>
  <property name="aspect_ratio">1</property>
  <property name="kdenlive:clipname"/>
  <property name="kdenlive:folderid">-1</property>
  <property name="meta.media.frame_rate_num">15</property>
  <property name="meta.media.frame_rate_den">1</property>
  <property name="meta.media.colorspace">709</property>
  <property name="meta.media.color_trc">2</property>
  <property name="meta.media.width">1600</property>
  <property name="meta.media.height">900</property>
  <property name="meta.media.color_range">mpeg</property>
  <property name="kdenlive:id">10</property>
  <property name="kdenlive:file_size">5503917</property>
  <property name="kdenlive:file_hash">1e6634c7e3fec0ea7be8170015c6f333</property>
  <property name="kdenlive:audio_max">91</property>
  <property name="meta.media.top_field_first">0</property>
  <property name="meta.media.progressive">1</property>
  <property name="global_feed">1</property>
 </producer>
 <producer id="producer9" in="00:00:00.000" out="00:00:05.133">
  <property name="length">155</property>
  <property name="eof">pause</property>
  <property name="resource">NormalGesture2.mp4</property>
  <property name="audio_index">-1</property>
  <property name="video_index">0</property>
  <property name="mute_on_pause">0</property>
  <property name="mlt_service">avformat-novalidate</property>
  <property name="meta.media.nb_streams">1</property>
  <property name="meta.media.0.stream.type">video</property>
  <property name="meta.media.0.stream.frame_rate">30</property>
  <property name="meta.media.0.stream.sample_aspect_ratio">0</property>
  <property name="meta.media.0.codec.width">1664</property>
  <property name="meta.media.0.codec.height">896</property>
  <property name="meta.media.0.codec.rotate">0</property>
  <property name="meta.media.0.codec.frame_rate">30</property>
  <property name="meta.media.0.codec.pix_fmt">yuv420p</property>
  <property name="meta.media.0.codec.sample_aspect_ratio">1</property>
  <property name="meta.media.0.codec.colorspace">709</property>
  <property name="meta.media.0.codec.name">h264</property>
  <property name="meta.media.0.codec.long_name">H.264 / AVC / MPEG-4 AVC / MPEG-4 part 10</property>
  <property name="meta.media.0.codec.bit_rate">4416214</property>
  <property name="meta.attr.0.stream.creation_time.markup">2021-03-17T10:15:09.000000Z</property>
  <property name="meta.attr.0.stream.handler_name.markup">VideoHandler</property>
  <property name="meta.attr.0.stream.encoder.markup">AVC Coding</property>
  <property name="meta.attr.major_brand.markup">mp42</property>
  <property name="meta.attr.minor_version.markup">0</property>
  <property name="meta.attr.compatible_brands.markup">mp41isom</property>
  <property name="meta.attr.creation_time.markup">2021-03-17T10:15:09.000000Z</property>
  <property name="seekable">1</property>
  <property name="meta.media.sample_aspect_num">1</property>
  <property name="meta.media.sample_aspect_den">1</property>
  <property name="aspect_ratio">1</property>
  <property name="kdenlive:clipname"/>
  <property name="kdenlive:folderid">-1</property>
  <property name="meta.media.frame_rate_num">30</property>
  <property name="meta.media.frame_rate_den">1</property>
  <property name="meta.media.colorspace">709</property>
  <property name="meta.media.color_trc">2</property>
  <property name="meta.media.width">1664</property>
  <property name="meta.media.height">896</property>
  <property name="meta.media.color_range">mpeg</property>
  <property name="kdenlive:id">12</property>
  <property name="kdenlive:file_size">2853545</property>
  <property name="kdenlive:file_hash">f53b4c2588cbca001e632d965152fabe</property>
  <property name="meta.media.top_field_first">0</property>
  <property name="meta.media.progressive">1</property>
  <property name="global_feed">1</property>
 </producer>
 <producer id="producer10" in="00:00:00.000" out="00:00:07.300">
  <property name="length">220</property>
  <property name="eof">pause</property>
  <property name="resource">end-normal.png</property>
  <property name="ttl">25</property>
  <property name="aspect_ratio">1</property>
  <property name="progressive">1</property>
  <property name="seekable">1</property>
  <property name="meta.media.width">1664</property>
  <property name="meta.media.height">896</property>
  <property name="mlt_service">qimage</property>
  <property name="kdenlive:clipname"/>
  <property name="kdenlive:duration">00:00:05.000</property>
  <property name="kdenlive:folderid">-1</property>
  <property name="kdenlive:id">13</property>
  <property name="kdenlive:file_size">307885</property>
  <property name="kdenlive:file_hash">ad8968295fa847fee491a654b1e91745</property>
  <property name="global_feed">1</property>
 </producer>
 <producer id="producer11" in="00:00:00.000" out="00:00:05.867">
  <property name="length">177</property>
  <property name="eof">pause</property>
  <property name="resource">start.png</property>
  <property name="ttl">25</property>
  <property name="aspect_ratio">1</property>
  <property name="progressive">1</property>
  <property name="seekable">1</property>
  <property name="meta.media.width">1664</property>
  <property name="meta.media.height">896</property>
  <property name="mlt_service">qimage</property>
  <property name="kdenlive:clipname"/>
  <property name="kdenlive:duration">00:00:05.000</property>
  <property name="kdenlive:folderid">-1</property>
  <property name="kdenlive:id">14</property>
  <property name="kdenlive:file_size">274888</property>
  <property name="kdenlive:file_hash">350b61edc6578579643d189ffeaa1af4</property>
  <property name="global_feed">1</property>
 </producer>
 <producer id="producer12" in="00:00:00.000" out="00:00:04.033">
  <property name="length">122</property>
  <property name="eof">pause</property>
  <property name="resource">RobotStudio 3-17_3.mp4</property>
  <property name="audio_index">-1</property>
  <property name="video_index">0</property>
  <property name="mute_on_pause">0</property>
  <property name="mlt_service">avformat-novalidate</property>
  <property name="meta.media.nb_streams">1</property>
  <property name="meta.media.0.stream.type">video</property>
  <property name="meta.media.0.stream.frame_rate">30</property>
  <property name="meta.media.0.stream.sample_aspect_ratio">0</property>
  <property name="meta.media.0.codec.width">1664</property>
  <property name="meta.media.0.codec.height">896</property>
  <property name="meta.media.0.codec.rotate">0</property>
  <property name="meta.media.0.codec.frame_rate">30</property>
  <property name="meta.media.0.codec.pix_fmt">yuv420p</property>
  <property name="meta.media.0.codec.sample_aspect_ratio">1</property>
  <property name="meta.media.0.codec.colorspace">709</property>
  <property name="meta.media.0.codec.name">h264</property>
  <property name="meta.media.0.codec.long_name">H.264 / AVC / MPEG-4 AVC / MPEG-4 part 10</property>
  <property name="meta.media.0.codec.bit_rate">6527923</property>
  <property name="meta.attr.0.stream.creation_time.markup">2021-03-17T16:31:42.000000Z</property>
  <property name="meta.attr.0.stream.handler_name.markup">VideoHandler</property>
  <property name="meta.attr.0.stream.encoder.markup">AVC Coding</property>
  <property name="meta.attr.major_brand.markup">mp42</property>
  <property name="meta.attr.minor_version.markup">0</property>
  <property name="meta.attr.compatible_brands.markup">mp41isom</property>
  <property name="meta.attr.creation_time.markup">2021-03-17T16:31:42.000000Z</property>
  <property name="seekable">1</property>
  <property name="meta.media.sample_aspect_num">1</property>
  <property name="meta.media.sample_aspect_den">1</property>
  <property name="aspect_ratio">1</property>
  <property name="kdenlive:clipname"/>
  <property name="kdenlive:folderid">-1</property>
  <property name="meta.media.frame_rate_num">30</property>
  <property name="meta.media.frame_rate_den">1</property>
  <property name="meta.media.colorspace">709</property>
  <property name="meta.media.color_trc">2</property>
  <property name="meta.media.width">1664</property>
  <property name="meta.media.height">896</property>
  <property name="meta.media.color_range">mpeg</property>
  <property name="kdenlive:id">15</property>
  <property name="kdenlive:file_size">3319623</property>
  <property name="kdenlive:file_hash">4bd4e3d4c1ab9a5e4d8cebaae30cc902</property>
  <property name="meta.media.top_field_first">0</property>
  <property name="meta.media.progressive">1</property>
  <property name="global_feed">1</property>
 </producer>
 <producer id="producer14" in="00:00:00.000" out="00:00:04.967">
  <property name="length">00:00:05.000</property>
  <property name="eof">pause</property>
  <property name="resource">startShock.png</property>
  <property name="ttl">25</property>
  <property name="aspect_ratio">1</property>
  <property name="progressive">1</property>
  <property name="seekable">1</property>
  <property name="meta.media.width">1664</property>
  <property name="meta.media.height">896</property>
  <property name="mlt_service">qimage</property>
  <property name="kdenlive:clipname"/>
  <property name="kdenlive:duration">00:00:05.000</property>
  <property name="kdenlive:folderid">-1</property>
  <property name="kdenlive:id">16</property>
  <property name="kdenlive:file_size">429382</property>
  <property name="kdenlive:file_hash">569f7c7a1ce3d8cbc5cde71449ac3154</property>
 </producer>
 <producer id="producer13" in="00:00:00.000" out="00:00:04.967">
  <property name="length">00:00:05.000</property>
  <property name="eof">pause</property>
  <property name="resource">end-shock.png</property>
  <property name="ttl">25</property>
  <property name="aspect_ratio">1</property>
  <property name="progressive">1</property>
  <property name="seekable">1</property>
  <property name="meta.media.width">1664</property>
  <property name="meta.media.height">896</property>
  <property name="mlt_service">qimage</property>
  <property name="kdenlive:clipname"/>
  <property name="kdenlive:duration">00:00:05.000</property>
  <property name="kdenlive:folderid">-1</property>
  <property name="kdenlive:id">17</property>
  <property name="kdenlive:file_size">390924</property>
  <property name="kdenlive:file_hash">aa97bfb2301eb517a4d00e8c1b617601</property>
 </producer>
 <producer id="producer15" in="00:00:00.000" out="00:00:15.100">
  <property name="length">454</property>
  <property name="eof">pause</property>
  <property name="resource">ohno.mp4</property>
  <property name="audio_index">-1</property>
  <property name="video_index">0</property>
  <property name="mute_on_pause">0</property>
  <property name="mlt_service">avformat-novalidate</property>
  <property name="meta.media.nb_streams">1</property>
  <property name="meta.media.0.stream.type">video</property>
  <property name="meta.media.0.stream.frame_rate">15</property>
  <property name="meta.media.0.stream.sample_aspect_ratio">0</property>
  <property name="meta.media.0.codec.width">1600</property>
  <property name="meta.media.0.codec.height">900</property>
  <property name="meta.media.0.codec.rotate">0</property>
  <property name="meta.media.0.codec.frame_rate">15</property>
  <property name="meta.media.0.codec.pix_fmt">yuv444p</property>
  <property name="meta.media.0.codec.sample_aspect_ratio">1</property>
  <property name="meta.media.0.codec.colorspace">709</property>
  <property name="meta.media.0.codec.name">h264</property>
  <property name="meta.media.0.codec.long_name">H.264 / AVC / MPEG-4 AVC / MPEG-4 part 10</property>
  <property name="meta.media.0.codec.bit_rate">659698</property>
  <property name="meta.attr.0.stream.creation_time.markup">2021-03-18T01:53:55.000000Z</property>
  <property name="meta.attr.0.stream.language.markup">eng</property>
  <property name="meta.attr.0.stream.handler_name.markup">VideoHandler</property>
  <property name="meta.attr.major_brand.markup">mp42</property>
  <property name="meta.attr.minor_version.markup">0</property>
  <property name="meta.attr.compatible_brands.markup">mp42mp41isomiso2</property>
  <property name="meta.attr.creation_time.markup">2021-03-18T01:53:55.000000Z</property>
  <property name="meta.attr.encoder.markup">x264</property>
  <property name="seekable">1</property>
  <property name="meta.media.sample_aspect_num">1</property>
  <property name="meta.media.sample_aspect_den">1</property>
  <property name="aspect_ratio">1</property>
  <property name="kdenlive:clipname"/>
  <property name="kdenlive:folderid">-1</property>
  <property name="meta.media.frame_rate_num">15</property>
  <property name="meta.media.frame_rate_den">1</property>
  <property name="meta.media.colorspace">709</property>
  <property name="meta.media.color_trc">2</property>
  <property name="meta.media.width">1600</property>
  <property name="meta.media.height">900</property>
  <property name="meta.media.color_range">mpeg</property>
  <property name="kdenlive:id">18</property>
  <property name="kdenlive:file_size">1250594</property>
  <property name="kdenlive:file_hash">3d0d89be68f99714f7d79329138d06ba</property>
  <property name="meta.media.top_field_first">0</property>
  <property name="meta.media.progressive">1</property>
  <property name="global_feed">1</property>
 </producer>
 <playlist id="main_bin">
  <property name="kdenlive:folder.-1.11">Folder</property>
  <property name="kdenlive:docproperties.activeTrack">1</property>
  <property name="kdenlive:docproperties.audioChannels">2</property>
  <property name="kdenlive:docproperties.audioTarget">-1</property>
  <property name="kdenlive:docproperties.disablepreview">0</property>
  <property name="kdenlive:docproperties.documentid">1614909127363</property>
  <property name="kdenlive:docproperties.enableTimelineZone">0</property>
  <property name="kdenlive:docproperties.enableexternalproxy">0</property>
  <property name="kdenlive:docproperties.enableproxy">0</property>
  <property name="kdenlive:docproperties.externalproxyparams"/>
  <property name="kdenlive:docproperties.generateimageproxy">0</property>
  <property name="kdenlive:docproperties.generateproxy">1</property>
  <property name="kdenlive:docproperties.groups">[
]
</property>
  <property name="kdenlive:docproperties.guides">[
    {
        "comment": "guide",
        "pos": 112,
        "type": 0
    },
    {
        "comment": "guide",
        "pos": 249,
        "type": 0
    },
    {
        "comment": "guide",
        "pos": 263,
        "type": 0
    },
    {
        "comment": "guide",
        "pos": 332,
        "type": 0
    },
    {
        "comment": "guide",
        "pos": 413,
        "type": 0
    },
    {
        "comment": "guide",
        "pos": 496,
        "type": 0
    },
    {
        "comment": "guide",
        "pos": 807,
        "type": 0
    },
    {
        "comment": "guide",
        "pos": 890,
        "type": 0
    },
    {
        "comment": "guide",
        "pos": 1173,
        "type": 0
    },
    {
        "comment": "guide",
        "pos": 1256,
        "type": 0
    },
    {
        "comment": "guide",
        "pos": 1413,
        "type": 0
    },
    {
        "comment": "guide",
        "pos": 1494,
        "type": 0
    },
    {
        "comment": "guide",
        "pos": 1719,
        "type": 0
    },
    {
        "comment": "guide",
        "pos": 1755,
        "type": 0
    },
    {
        "comment": "guide",
        "pos": 1800,
        "type": 0
    },
    {
        "comment": "guide",
        "pos": 1905,
        "type": 0
    }
]
</property>
  <property name="kdenlive:docproperties.kdenliveversion">20.12.2</property>
  <property name="kdenlive:docproperties.position">1469</property>
  <property name="kdenlive:docproperties.previewextension">avi</property>
  <property name="kdenlive:docproperties.previewparameters">f=avi vcodec=mjpeg progressive=1 qscale=1</property>
  <property name="kdenlive:docproperties.profile">atsc_1080p_30</property>
  <property name="kdenlive:docproperties.proxyextension">mkv</property>
  <property name="kdenlive:docproperties.proxyimageminsize">2000</property>
  <property name="kdenlive:docproperties.proxyimagesize">800</property>
  <property name="kdenlive:docproperties.proxyminsize">700</property>
  <property name="kdenlive:docproperties.proxyparams">-vf yadif,scale=960:-2 -qscale 3 -vcodec mjpeg -acodec pcm_s16le</property>
  <property name="kdenlive:docproperties.renderaudioquality">192</property>
  <property name="kdenlive:docproperties.rendercategory">Generic (HD for web, mobile devices...)</property>
  <property name="kdenlive:docproperties.renderendguide">12</property>
  <property name="kdenlive:docproperties.renderexportaudio">0</property>
  <property name="kdenlive:docproperties.renderfield">0</property>
  <property name="kdenlive:docproperties.renderguide">1</property>
  <property name="kdenlive:docproperties.renderplay">0</property>
  <property name="kdenlive:docproperties.renderprofile">MP4 - the dominating format (H264/AAC)</property>
  <property name="kdenlive:docproperties.renderquality">23</property>
  <property name="kdenlive:docproperties.renderratio">1</property>
  <property name="kdenlive:docproperties.renderrescale">0</property>
  <property name="kdenlive:docproperties.renderrescaleheight">540</property>
  <property name="kdenlive:docproperties.renderrescalewidth">960</property>
  <property name="kdenlive:docproperties.renderscanning">0</property>
  <property name="kdenlive:docproperties.renderspeed">2</property>
  <property name="kdenlive:docproperties.renderstartguide">12</property>
  <property name="kdenlive:docproperties.rendertcoverlay">0</property>
  <property name="kdenlive:docproperties.rendertctype">0</property>
  <property name="kdenlive:docproperties.rendertwopass">0</property>
  <property name="kdenlive:docproperties.renderurl">R6n.mp4</property>
  <property name="kdenlive:docproperties.renderzone">0</property>
  <property name="kdenlive:docproperties.scrollPos">600</property>
  <property name="kdenlive:docproperties.seekOffset">30000</property>
  <property name="kdenlive:docproperties.version">1</property>
  <property name="kdenlive:docproperties.verticalzoom">1</property>
  <property name="kdenlive:docproperties.videoTarget">-1</property>
  <property name="kdenlive:docproperties.zonein">0</property>
  <property name="kdenlive:docproperties.zoneout">75</property>
  <property name="kdenlive:docproperties.zoom">6</property>
  <property name="kdenlive:expandedFolders">11</property>
  <property name="kdenlive:documentnotes"/>
  <property name="xml_retain">1</property>
  <entry producer="producer1" in="00:00:00.000" out="00:00:07.300"/>
  <entry producer="producer0" in="00:00:00.000" out="00:00:03.000"/>
  <entry producer="producer2" in="00:00:00.000" out="00:00:05.133"/>
  <entry producer="producer5" in="00:00:00.000" out="00:00:06.600"/>
  <entry producer="producer3" in="00:00:00.000" out="00:00:01.633"/>
  <entry producer="producer6" in="00:00:00.000" out="00:00:03.600"/>
  <entry producer="producer4" in="00:00:00.000" out="00:00:01.767"/>
  <entry producer="producer8" in="00:00:00.000" out="00:01:06.433"/>
  <entry producer="producer7" in="00:00:00.000" out="00:01:05.700"/>
  <entry producer="producer9" in="00:00:00.000" out="00:00:05.133"/>
  <entry producer="producer10" in="00:00:00.000" out="00:00:07.300"/>
  <entry producer="producer11" in="00:00:00.000" out="00:00:05.867"/>
  <entry producer="producer12" in="00:00:00.000" out="00:00:04.033"/>
  <entry producer="producer14" in="00:00:00.000" out="00:00:04.967"/>
  <entry producer="producer13" in="00:00:00.000" out="00:00:04.967"/>
  <entry producer="producer15" in="00:00:00.000" out="00:00:15.100"/>
 </playlist>
 <producer id="black_track" in="00:00:00.000" out="00:17:46.067">
  <property name="length">2147483647</property>
  <property name="eof">continue</property>
  <property name="resource">black</property>
  <property name="aspect_ratio">1</property>
  <property name="mlt_service">color</property>
  <property name="mlt_image_format">rgb24a</property>
  <property name="set.test_audio">0</property>
 </producer>
 <producer id="producer16" in="00:00:00.000" out="00:00:03.000">
  <property name="length">91</property>
  <property name="eof">pause</property>
  <property name="resource">confirm.wav</property>
  <property name="audio_index">0</property>
  <property name="video_index">-1</property>
  <property name="mute_on_pause">0</property>
  <property name="mlt_service">avformat-novalidate</property>
  <property name="meta.media.nb_streams">1</property>
  <property name="meta.media.0.stream.type">audio</property>
  <property name="meta.media.0.codec.sample_fmt">s16</property>
  <property name="meta.media.0.codec.sample_rate">16000</property>
  <property name="meta.media.0.codec.channels">1</property>
  <property name="meta.media.0.codec.name">pcm_s16le</property>
  <property name="meta.media.0.codec.long_name">PCM signed 16-bit little-endian</property>
  <property name="meta.media.0.codec.bit_rate">256000</property>
  <property name="seekable">1</property>
  <property name="kdenlive:clipname"/>
  <property name="kdenlive:folderid">-1</property>
  <property name="kdenlive:id">3</property>
  <property name="kdenlive:file_size">97484</property>
  <property name="kdenlive:file_hash">f498e76250299cd652ae2e1512e0ee55</property>
  <property name="kdenlive:audio_max">1</property>
  <property name="kdenlive:rating">4</property>
  <property name="global_feed">1</property>
  <property name="xml">was here</property>
  <property name="set.test_audio">0</property>
  <property name="set.test_image">1</property>
 </producer>
 <producer id="producer17" in="00:00:00.000" out="00:00:01.767">
  <property name="length">54</property>
  <property name="eof">pause</property>
  <property name="resource">silent.wav</property>
  <property name="audio_index">0</property>
  <property name="video_index">-1</property>
  <property name="mute_on_pause">0</property>
  <property name="mlt_service">avformat-novalidate</property>
  <property name="meta.media.nb_streams">1</property>
  <property name="meta.media.0.stream.type">audio</property>
  <property name="meta.media.0.codec.sample_fmt">s16</property>
  <property name="meta.media.0.codec.sample_rate">16000</property>
  <property name="meta.media.0.codec.channels">1</property>
  <property name="meta.media.0.codec.name">pcm_s16le</property>
  <property name="meta.media.0.codec.long_name">PCM signed 16-bit little-endian</property>
  <property name="meta.media.0.codec.bit_rate">256000</property>
  <property name="seekable">1</property>
  <property name="kdenlive:clipname"/>
  <property name="kdenlive:folderid">-1</property>
  <property name="kdenlive:id">8</property>
  <property name="kdenlive:file_size">57164</property>
  <property name="kdenlive:file_hash">1b7197b4ba32c3de596f52daba746f5b</property>
  <property name="kdenlive:audio_max">3</property>
  <property name="global_feed">1</property>
  <property name="xml">was here</property>
  <property name="set.test_audio">0</property>
  <property name="set.test_image">1</property>
 </producer>
 <producer id="producer18" in="00:00:00.000" out="00:00:07.300">
  <property name="length">220</property>
  <property name="eof">pause</property>
  <property name="resource">apologise.wav</property>
  <property name="audio_index">0</property>
  <property name="video_index">-1</property>
  <property name="mute_on_pause">0</property>
  <property name="mlt_service">avformat-novalidate</property>
  <property name="meta.media.nb_streams">1</property>
  <property name="meta.media.0.stream.type">audio</property>
  <property name="meta.media.0.codec.sample_fmt">s16</property>
  <property name="meta.media.0.codec.sample_rate">16000</property>
  <property name="meta.media.0.codec.channels">1</property>
  <property name="meta.media.0.codec.name">pcm_s16le</property>
  <property name="meta.media.0.codec.long_name">PCM signed 16-bit little-endian</property>
  <property name="meta.media.0.codec.bit_rate">256000</property>
  <property name="seekable">1</property>
  <property name="kdenlive:clipname"/>
  <property name="kdenlive:folderid">-1</property>
  <property name="kdenlive:id">2</property>
  <property name="kdenlive:file_size">235084</property>
  <property name="kdenlive:file_hash">f338c9e9bb290a5c3bedbd4efc72f456</property>
  <property name="kdenlive:audio_max">1</property>
  <property name="global_feed">1</property>
  <property name="xml">was here</property>
  <property name="set.test_audio">0</property>
  <property name="set.test_image">1</property>
 </producer>
 <producer id="producer19" in="00:00:00.000" out="00:00:06.600">
  <property name="length">199</property>
  <property name="eof">pause</property>
  <property name="resource">joke.wav</property>
  <property name="audio_index">0</property>
  <property name="video_index">-1</property>
  <property name="mute_on_pause">0</property>
  <property name="mlt_service">avformat-novalidate</property>
  <property name="meta.media.nb_streams">1</property>
  <property name="meta.media.0.stream.type">audio</property>
  <property name="meta.media.0.codec.sample_fmt">s16</property>
  <property name="meta.media.0.codec.sample_rate">16000</property>
  <property name="meta.media.0.codec.channels">1</property>
  <property name="meta.media.0.codec.name">pcm_s16le</property>
  <property name="meta.media.0.codec.long_name">PCM signed 16-bit little-endian</property>
  <property name="meta.media.0.codec.bit_rate">256000</property>
  <property name="seekable">1</property>
  <property name="kdenlive:clipname"/>
  <property name="kdenlive:folderid">-1</property>
  <property name="kdenlive:id">5</property>
  <property name="kdenlive:file_size">212524</property>
  <property name="kdenlive:file_hash">152293d728495f2faeef7541d74cb574</property>
  <property name="kdenlive:audio_max">1</property>
  <property name="global_feed">1</property>
  <property name="xml">was here</property>
  <property name="set.test_audio">0</property>
  <property name="set.test_image">1</property>
 </producer>
 <producer id="producer20" in="00:00:00.000" out="00:00:03.600">
  <property name="length">109</property>
  <property name="eof">pause</property>
  <property name="resource">sharing.wav</property>
  <property name="audio_index">0</property>
  <property name="video_index">-1</property>
  <property name="mute_on_pause">0</property>
  <property name="mlt_service">avformat-novalidate</property>
  <property name="meta.media.nb_streams">1</property>
  <property name="meta.media.0.stream.type">audio</property>
  <property name="meta.media.0.codec.sample_fmt">s16</property>
  <property name="meta.media.0.codec.sample_rate">16000</property>
  <property name="meta.media.0.codec.channels">1</property>
  <property name="meta.media.0.codec.name">pcm_s16le</property>
  <property name="meta.media.0.codec.long_name">PCM signed 16-bit little-endian</property>
  <property name="meta.media.0.codec.bit_rate">256000</property>
  <property name="seekable">1</property>
  <property name="kdenlive:clipname"/>
  <property name="kdenlive:folderid">-1</property>
  <property name="kdenlive:id">7</property>
  <property name="kdenlive:file_size">116204</property>
  <property name="kdenlive:file_hash">d79c91e6300ec8e24fea7ad325d892f5</property>
  <property name="kdenlive:audio_max">1</property>
  <property name="global_feed">1</property>
  <property name="xml">was here</property>
  <property name="set.test_audio">0</property>
  <property name="set.test_image">1</property>
 </producer>
 <producer id="producer21" in="00:00:00.000" out="00:00:05.133">
  <property name="length">155</property>
  <property name="eof">pause</property>
  <property name="resource">help.wav</property>
  <property name="audio_index">0</property>
  <property name="video_index">-1</property>
  <property name="mute_on_pause">0</property>
  <property name="mlt_service">avformat-novalidate</property>
  <property name="meta.media.nb_streams">1</property>
  <property name="meta.media.0.stream.type">audio</property>
  <property name="meta.media.0.codec.sample_fmt">s16</property>
  <property name="meta.media.0.codec.sample_rate">16000</property>
  <property name="meta.media.0.codec.channels">1</property>
  <property name="meta.media.0.codec.name">pcm_s16le</property>
  <property name="meta.media.0.codec.long_name">PCM signed 16-bit little-endian</property>
  <property name="meta.media.0.codec.bit_rate">256000</property>
  <property name="seekable">1</property>
  <property name="kdenlive:clipname"/>
  <property name="kdenlive:folderid">-1</property>
  <property name="kdenlive:id">4</property>
  <property name="kdenlive:file_size">165164</property>
  <property name="kdenlive:file_hash">63f48a286325fd75adf7044c268f9068</property>
  <property name="kdenlive:audio_max">3</property>
  <property name="global_feed">1</property>
  <property name="xml">was here</property>
  <property name="set.test_audio">0</property>
  <property name="set.test_image">1</property>
 </producer>
 <producer id="producer22" in="00:00:00.000" out="00:00:01.633">
  <property name="length">50</property>
  <property name="eof">pause</property>
  <property name="resource">ohno.wav</property>
  <property name="audio_index">0</property>
  <property name="video_index">-1</property>
  <property name="mute_on_pause">0</property>
  <property name="mlt_service">avformat-novalidate</property>
  <property name="meta.media.nb_streams">1</property>
  <property name="meta.media.0.stream.type">audio</property>
  <property name="meta.media.0.codec.sample_fmt">s16</property>
  <property name="meta.media.0.codec.sample_rate">16000</property>
  <property name="meta.media.0.codec.channels">1</property>
  <property name="meta.media.0.codec.name">pcm_s16le</property>
  <property name="meta.media.0.codec.long_name">PCM signed 16-bit little-endian</property>
  <property name="meta.media.0.codec.bit_rate">256000</property>
  <property name="seekable">1</property>
  <property name="kdenlive:clipname"/>
  <property name="kdenlive:folderid">-1</property>
  <property name="kdenlive:id">6</property>
  <property name="kdenlive:file_size">53644</property>
  <property name="kdenlive:file_hash">f0be66854488b802fb698d480cee8319</property>
  <property name="kdenlive:audio_max">1</property>
  <property name="global_feed">1</property>
  <property name="xml">was here</property>
  <property name="set.test_audio">0</property>
  <property name="set.test_image">1</property>
 </producer>
 <playlist id="playlist0">
  <property name="kdenlive:audio_track">1</property>
  <blank length="00:00:04.500"/>
  <entry producer="producer16" in="00:00:00.000" out="00:00:03.000">
   <property name="kdenlive:id">3</property>
  </entry>
  <blank length="00:00:04.000"/>
  <entry producer="producer17" in="00:00:00.000" out="00:00:01.767">
   <property name="kdenlive:id">8</property>
  </entry>
  <blank length="00:00:04.767"/>
  <entry producer="producer18" in="00:00:00.000" out="00:00:07.300">
   <property name="kdenlive:id">2</property>
  </entry>
  <blank length="00:00:05.600"/>
  <entry producer="producer19" in="00:00:00.000" out="00:00:06.600">
   <property name="kdenlive:id">5</property>
  </entry>
  <blank length="00:00:05.100"/>
  <entry producer="producer20" in="00:00:00.000" out="00:00:03.600">
   <property name="kdenlive:id">7</property>
  </entry>
  <blank length="00:00:04.633"/>
  <entry producer="producer21" in="00:00:00.000" out="00:00:05.133">
   <property name="kdenlive:id">4</property>
  </entry>
  <blank length="00:00:04.733"/>
  <entry producer="producer22" in="00:00:00.000" out="00:00:01.633">
   <property name="kdenlive:id">6</property>
  </entry>
 </playlist>
 <playlist id="playlist1"/>
 <tractor id="tractor0" in="00:00:00.000" out="00:01:02.567">
  <property name="kdenlive:audio_track">1</property>
  <property name="kdenlive:trackheight">80</property>
  <property name="kdenlive:timeline_active">0</property>
  <property name="kdenlive:collapsed">0</property>
  <property name="kdenlive:thumbs_format"/>
  <property name="kdenlive:audio_rec"/>
  <track hide="video" producer="playlist0"/>
  <track hide="video" producer="playlist1"/>
  <filter id="filter0">
   <property name="window">75</property>
   <property name="max_gain">20dB</property>
   <property name="mlt_service">volume</property>
   <property name="internal_added">237</property>
   <property name="disable">1</property>
  </filter>
  <filter id="filter1">
   <property name="channel">-1</property>
   <property name="mlt_service">panner</property>
   <property name="internal_added">237</property>
   <property name="start">0.5</property>
   <property name="disable">1</property>
  </filter>
  <filter id="filter2">
   <property name="iec_scale">0</property>
   <property name="mlt_service">audiolevel</property>
   <property name="disable">1</property>
  </filter>
 </tractor>
 <producer id="producer23" in="00:00:00.000" out="00:00:05.133">
  <property name="length">155</property>
  <property name="eof">pause</property>
  <property name="resource">NormalGesture2.mp4</property>
  <property name="audio_index">-1</property>
  <property name="video_index">0</property>
  <property name="mute_on_pause">0</property>
  <property name="mlt_service">avformat-novalidate</property>
  <property name="seekable">1</property>
  <property name="aspect_ratio">1</property>
  <property name="kdenlive:clipname"/>
  <property name="kdenlive:folderid">-1</property>
  <property name="kdenlive:id">12</property>
  <property name="kdenlive:file_size">2853545</property>
  <property name="kdenlive:file_hash">f53b4c2588cbca001e632d965152fabe</property>
  <property name="global_feed">1</property>
  <property name="xml">was here</property>
  <property name="meta.media.nb_streams">1</property>
  <property name="meta.media.0.stream.type">video</property>
  <property name="meta.media.0.stream.frame_rate">30</property>
  <property name="meta.media.0.stream.sample_aspect_ratio">0</property>
  <property name="meta.media.0.codec.width">1664</property>
  <property name="meta.media.0.codec.height">896</property>
  <property name="meta.media.0.codec.rotate">0</property>
  <property name="meta.media.0.codec.frame_rate">30</property>
  <property name="meta.media.0.codec.pix_fmt">yuv420p</property>
  <property name="meta.media.0.codec.sample_aspect_ratio">1</property>
  <property name="meta.media.0.codec.colorspace">709</property>
  <property name="meta.media.0.codec.name">h264</property>
  <property name="meta.media.0.codec.long_name">H.264 / AVC / MPEG-4 AVC / MPEG-4 part 10</property>
  <property name="meta.media.0.codec.bit_rate">4416214</property>
  <property name="meta.attr.0.stream.creation_time.markup">2021-03-17T10:15:09.000000Z</property>
  <property name="meta.attr.0.stream.handler_name.markup">VideoHandler</property>
  <property name="meta.attr.0.stream.encoder.markup">AVC Coding</property>
  <property name="meta.attr.major_brand.markup">mp42</property>
  <property name="meta.attr.minor_version.markup">0</property>
  <property name="meta.attr.compatible_brands.markup">mp41isom</property>
  <property name="meta.attr.creation_time.markup">2021-03-17T10:15:09.000000Z</property>
  <property name="meta.media.sample_aspect_num">1</property>
  <property name="meta.media.sample_aspect_den">1</property>
  <property name="meta.media.frame_rate_num">30</property>
  <property name="meta.media.frame_rate_den">1</property>
  <property name="meta.media.colorspace">709</property>
  <property name="meta.media.color_trc">2</property>
  <property name="meta.media.width">1664</property>
  <property name="meta.media.height">896</property>
  <property name="meta.media.color_range">mpeg</property>
  <property name="meta.media.top_field_first">0</property>
  <property name="meta.media.progressive">1</property>
  <property name="set.test_audio">1</property>
  <property name="set.test_image">0</property>
 </producer>
 <producer id="producer24" in="00:00:00.000" out="00:00:06.267">
  <property name="length">189</property>
  <property name="eof">pause</property>
  <property name="resource">0.644444:RobotStudio 3-17_3.mp4</property>
  <property name="aspect_ratio">1</property>
  <property name="meta.media.nb_streams">1</property>
  <property name="meta.media.0.stream.type">video</property>
  <property name="meta.media.0.stream.frame_rate">30</property>
  <property name="meta.media.0.stream.sample_aspect_ratio">0</property>
  <property name="meta.media.0.codec.width">1664</property>
  <property name="meta.media.0.codec.height">896</property>
  <property name="meta.media.0.codec.rotate">0</property>
  <property name="meta.media.0.codec.frame_rate">30</property>
  <property name="meta.media.0.codec.pix_fmt">yuv420p</property>
  <property name="meta.media.0.codec.sample_aspect_ratio">1</property>
  <property name="meta.media.0.codec.colorspace">709</property>
  <property name="meta.media.0.codec.name">h264</property>
  <property name="meta.media.0.codec.long_name">H.264 / AVC / MPEG-4 AVC / MPEG-4 part 10</property>
  <property name="meta.media.0.codec.bit_rate">6527923</property>
  <property name="meta.attr.0.stream.creation_time.markup">2021-03-17T16:31:42.000000Z</property>
  <property name="meta.attr.0.stream.handler_name.markup">VideoHandler</property>
  <property name="meta.attr.0.stream.encoder.markup">AVC Coding</property>
  <property name="meta.attr.major_brand.markup">mp42</property>
  <property name="meta.attr.minor_version.markup">0</property>
  <property name="meta.attr.compatible_brands.markup">mp41isom</property>
  <property name="meta.attr.creation_time.markup">2021-03-17T16:31:42.000000Z</property>
  <property name="seekable">1</property>
  <property name="meta.media.sample_aspect_num">1</property>
  <property name="meta.media.sample_aspect_den">1</property>
  <property name="audio_index">-1</property>
  <property name="video_index">0</property>
  <property name="mute_on_pause">1</property>
  <property name="warp_speed">0.644444</property>
  <property name="warp_resource">RobotStudio 3-17_3.mp4</property>
  <property name="mlt_service">timewarp</property>
  <property name="set.test_audio">1</property>
  <property name="set.test_image">0</property>
  <property name="kdenlive:id">15</property>
  <property name="warp_pitch">0</property>
  <property name="meta.media.frame_rate_num">30</property>
  <property name="meta.media.frame_rate_den">1</property>
  <property name="meta.media.colorspace">709</property>
  <property name="meta.media.color_trc">2</property>
  <property name="meta.media.width">1664</property>
  <property name="meta.media.height">896</property>
  <property name="meta.media.color_range">mpeg</property>
  <property name="meta.media.top_field_first">0</property>
  <property name="meta.media.progressive">1</property>
 </producer>
 <playlist id="playlist2">
  <entry producer="producer11" in="00:00:00.000" out="00:00:04.467">
   <property name="kdenlive:id">14</property>
   <filter id="filter3">
    <property name="version">0.1</property>
    <property name="mlt_service">frei0r.alphaspot</property>
    <property name="kdenlive_id">frei0r.alphaspot</property>
    <property name="Shape">0</property>
    <property name="Position X">00:00:00.000=0.487</property>
    <property name="Position Y">00:00:00.000=0.31</property>
    <property name="Size X">00:00:00.000=0.02</property>
    <property name="Size Y">00:00:00.000=0.164</property>
    <property name="Tilt">00:00:00.000=0.5</property>
    <property name="Transition width">00:00:00.000=0</property>
    <property name="Min">00:00:00.000=0</property>
    <property name="Max">00:00:00.000=1</property>
    <property name="Operation">1</property>
    <property name="kdenlive:collapsed">0</property>
   </filter>
  </entry>
  <entry producer="producer23" in="00:00:02.167" out="00:00:03.600">
   <property name="kdenlive:id">12</property>
   <filter id="filter4">
    <property name="version">0.1</property>
    <property name="mlt_service">frei0r.alphaspot</property>
    <property name="kdenlive_id">frei0r.alphaspot</property>
    <property name="Shape">0</property>
    <property name="Position X">00:00:02.167=0.487</property>
    <property name="Position Y">00:00:02.167=0.31</property>
    <property name="Size X">00:00:02.167=0.02</property>
    <property name="Size Y">00:00:02.167=0.164</property>
    <property name="Tilt">00:00:02.167=0.5</property>
    <property name="Transition width">00:00:02.167=0</property>
    <property name="Min">00:00:02.167=0</property>
    <property name="Max">00:00:02.167=1</property>
    <property name="Operation">1</property>
    <property name="kdenlive:collapsed">0</property>
   </filter>
  </entry>
  <entry producer="producer10" in="00:00:00.000" out="00:00:02.300">
   <property name="kdenlive:id">13</property>
   <filter id="filter5">
    <property name="version">0.1</property>
    <property name="mlt_service">frei0r.alphaspot</property>
    <property name="kdenlive_id">frei0r.alphaspot</property>
    <property name="Shape">0</property>
    <property name="Position X">00:00:00.000=0.487</property>
    <property name="Position Y">00:00:00.000=0.31</property>
    <property name="Size X">00:00:00.000=0.02</property>
    <property name="Size Y">00:00:00.000=0.164</property>
    <property name="Tilt">00:00:00.000=0.5</property>
    <property name="Transition width">00:00:00.000=0</property>
    <property name="Min">00:00:00.000=0</property>
    <property name="Max">00:00:00.000=1</property>
    <property name="Operation">1</property>
    <property name="kdenlive:collapsed">0</property>
   </filter>
  </entry>
  <entry producer="producer11" in="00:00:00.000" out="00:00:02.767">
   <property name="kdenlive:id">14</property>
   <filter id="filter6">
    <property name="version">0.1</property>
    <property name="mlt_service">frei0r.alphaspot</property>
    <property name="kdenlive_id">frei0r.alphaspot</property>
    <property name="Shape">0</property>
    <property name="Position X">00:00:00.000=0.487</property>
    <property name="Position Y">00:00:00.000=0.31</property>
    <property name="Size X">00:00:00.000=0.02</property>
    <property name="Size Y">00:00:00.000=0.164</property>
    <property name="Tilt">00:00:00.000=0.5</property>
    <property name="Transition width">00:00:00.000=0</property>
    <property name="Min">00:00:00.000=0</property>
    <property name="Max">00:00:00.000=1</property>
    <property name="Operation">1</property>
    <property name="kdenlive:collapsed">0</property>
   </filter>
  </entry>
  <entry producer="producer23" in="00:00:02.167" out="00:00:03.600">
   <property name="kdenlive:id">12</property>
   <filter id="filter7">
    <property name="version">0.1</property>
    <property name="mlt_service">frei0r.alphaspot</property>
    <property name="kdenlive_id">frei0r.alphaspot</property>
    <property name="Shape">0</property>
    <property name="Position X">00:00:02.167=0.487</property>
    <property name="Position Y">00:00:02.167=0.31</property>
    <property name="Size X">00:00:02.167=0.02</property>
    <property name="Size Y">00:00:02.167=0.164</property>
    <property name="Tilt">00:00:02.167=0.5</property>
    <property name="Transition width">00:00:02.167=0</property>
    <property name="Min">00:00:02.167=0</property>
    <property name="Max">00:00:02.167=1</property>
    <property name="Operation">1</property>
    <property name="kdenlive:collapsed">0</property>
   </filter>
  </entry>
  <entry producer="producer10" in="00:00:00.000" out="00:00:03.933">
   <property name="kdenlive:id">13</property>
   <filter id="filter8">
    <property name="version">0.1</property>
    <property name="mlt_service">frei0r.alphaspot</property>
    <property name="kdenlive_id">frei0r.alphaspot</property>
    <property name="Shape">0</property>
    <property name="Position X">00:00:00.000=0.487</property>
    <property name="Position Y">00:00:00.000=0.31</property>
    <property name="Size X">00:00:00.000=0.02</property>
    <property name="Size Y">00:00:00.000=0.164</property>
    <property name="Tilt">00:00:00.000=0.5</property>
    <property name="Transition width">00:00:00.000=0</property>
    <property name="Min">00:00:00.000=0</property>
    <property name="Max">00:00:00.000=1</property>
    <property name="Operation">1</property>
    <property name="kdenlive:collapsed">0</property>
   </filter>
  </entry>
  <entry producer="producer11" in="00:00:00.000" out="00:00:01.533">
   <property name="kdenlive:id">14</property>
   <filter id="filter9">
    <property name="version">0.1</property>
    <property name="mlt_service">frei0r.alphaspot</property>
    <property name="kdenlive_id">frei0r.alphaspot</property>
    <property name="Shape">0</property>
    <property name="Position X">00:00:00.000=0.487</property>
    <property name="Position Y">00:00:00.000=0.31</property>
    <property name="Size X">00:00:00.000=0.02</property>
    <property name="Size Y">00:00:00.000=0.164</property>
    <property name="Tilt">00:00:00.000=0.5</property>
    <property name="Transition width">00:00:00.000=0</property>
    <property name="Min">00:00:00.000=0</property>
    <property name="Max">00:00:00.000=1</property>
    <property name="Operation">1</property>
    <property name="kdenlive:collapsed">0</property>
   </filter>
  </entry>
  <entry producer="producer23" in="00:00:02.167" out="00:00:03.600">
   <property name="kdenlive:id">12</property>
   <filter id="filter10">
    <property name="version">0.1</property>
    <property name="mlt_service">frei0r.alphaspot</property>
    <property name="kdenlive_id">frei0r.alphaspot</property>
    <property name="Shape">0</property>
    <property name="Position X">00:00:02.167=0.487</property>
    <property name="Position Y">00:00:02.167=0.31</property>
    <property name="Size X">00:00:02.167=0.02</property>
    <property name="Size Y">00:00:02.167=0.164</property>
    <property name="Tilt">00:00:02.167=0.5</property>
    <property name="Transition width">00:00:02.167=0</property>
    <property name="Min">00:00:02.167=0</property>
    <property name="Max">00:00:02.167=1</property>
    <property name="Operation">1</property>
    <property name="kdenlive:collapsed">0</property>
   </filter>
  </entry>
  <entry producer="producer10" in="00:00:00.000" out="00:00:07.300">
   <property name="kdenlive:id">13</property>
   <filter id="filter11">
    <property name="version">0.1</property>
    <property name="mlt_service">frei0r.alphaspot</property>
    <property name="kdenlive_id">frei0r.alphaspot</property>
    <property name="Shape">0</property>
    <property name="Position X">00:00:00.000=0.487</property>
    <property name="Position Y">00:00:00.000=0.31</property>
    <property name="Size X">00:00:00.000=0.02</property>
    <property name="Size Y">00:00:00.000=0.164</property>
    <property name="Tilt">00:00:00.000=0.5</property>
    <property name="Transition width">00:00:00.000=0</property>
    <property name="Min">00:00:00.000=0</property>
    <property name="Max">00:00:00.000=1</property>
    <property name="Operation">1</property>
    <property name="kdenlive:collapsed">0</property>
   </filter>
  </entry>
  <entry producer="producer11" in="00:00:00.000" out="00:00:04.100">
   <property name="kdenlive:id">14</property>
   <filter id="filter12">
    <property name="version">0.1</property>
    <property name="mlt_service">frei0r.alphaspot</property>
    <property name="kdenlive_id">frei0r.alphaspot</property>
    <property name="Shape">0</property>
    <property name="Position X">00:00:00.000=0.487</property>
    <property name="Position Y">00:00:00.000=0.31</property>
    <property name="Size X">00:00:00.000=0.02</property>
    <property name="Size Y">00:00:00.000=0.164</property>
    <property name="Tilt">00:00:00.000=0.5</property>
    <property name="Transition width">00:00:00.000=0</property>
    <property name="Min">00:00:00.000=0</property>
    <property name="Max">00:00:00.000=1</property>
    <property name="Operation">1</property>
    <property name="kdenlive:collapsed">0</property>
   </filter>
  </entry>
  <entry producer="producer23" in="00:00:02.167" out="00:00:03.600">
   <property name="kdenlive:id">12</property>
   <filter id="filter13">
    <property name="version">0.1</property>
    <property name="mlt_service">frei0r.alphaspot</property>
    <property name="kdenlive_id">frei0r.alphaspot</property>
    <property name="Shape">0</property>
    <property name="Position X">00:00:02.167=0.487</property>
    <property name="Position Y">00:00:02.167=0.31</property>
    <property name="Size X">00:00:02.167=0.02</property>
    <property name="Size Y">00:00:02.167=0.164</property>
    <property name="Tilt">00:00:02.167=0.5</property>
    <property name="Transition width">00:00:02.167=0</property>
    <property name="Min">00:00:02.167=0</property>
    <property name="Max">00:00:02.167=1</property>
    <property name="Operation">1</property>
    <property name="kdenlive:collapsed">0</property>
   </filter>
  </entry>
  <entry producer="producer10" in="00:00:00.000" out="00:00:06.567">
   <property name="kdenlive:id">13</property>
   <filter id="filter14">
    <property name="version">0.1</property>
    <property name="mlt_service">frei0r.alphaspot</property>
    <property name="kdenlive_id">frei0r.alphaspot</property>
    <property name="Shape">0</property>
    <property name="Position X">00:00:00.000=0.487</property>
    <property name="Position Y">00:00:00.000=0.31</property>
    <property name="Size X">00:00:00.000=0.02</property>
    <property name="Size Y">00:00:00.000=0.164</property>
    <property name="Tilt">00:00:00.000=0.5</property>
    <property name="Transition width">00:00:00.000=0</property>
    <property name="Min">00:00:00.000=0</property>
    <property name="Max">00:00:00.000=1</property>
    <property name="Operation">1</property>
    <property name="kdenlive:collapsed">0</property>
   </filter>
  </entry>
  <entry producer="producer11" in="00:00:00.000" out="00:00:03.633">
   <property name="kdenlive:id">14</property>
   <property name="kdenlive:activeeffect">0</property>
   <filter id="filter15">
    <property name="version">0.1</property>
    <property name="mlt_service">frei0r.alphaspot</property>
    <property name="kdenlive_id">frei0r.alphaspot</property>
    <property name="Shape">0</property>
    <property name="Position X">00:00:00.000=0.487</property>
    <property name="Position Y">00:00:00.000=0.31</property>
    <property name="Size X">00:00:00.000=0.02</property>
    <property name="Size Y">00:00:00.000=0.164</property>
    <property name="Tilt">00:00:00.000=0.5</property>
    <property name="Transition width">00:00:00.000=0</property>
    <property name="Min">00:00:00.000=0</property>
    <property name="Max">00:00:00.000=1</property>
    <property name="Operation">1</property>
    <property name="kdenlive:collapsed">0</property>
   </filter>
  </entry>
  <entry producer="producer23" in="00:00:02.167" out="00:00:03.600">
   <property name="kdenlive:id">12</property>
   <filter id="filter16">
    <property name="version">0.1</property>
    <property name="mlt_service">frei0r.alphaspot</property>
    <property name="kdenlive_id">frei0r.alphaspot</property>
    <property name="Shape">0</property>
    <property name="Position X">00:00:02.167=0.487</property>
    <property name="Position Y">00:00:02.167=0.31</property>
    <property name="Size X">00:00:02.167=0.02</property>
    <property name="Size Y">00:00:02.167=0.164</property>
    <property name="Tilt">00:00:02.167=0.5</property>
    <property name="Transition width">00:00:02.167=0</property>
    <property name="Min">00:00:02.167=0</property>
    <property name="Max">00:00:02.167=1</property>
    <property name="Operation">1</property>
    <property name="kdenlive:collapsed">0</property>
   </filter>
  </entry>
  <entry producer="producer10" in="00:00:00.000" out="00:00:04.167">
   <property name="kdenlive:id">13</property>
   <property name="kdenlive:activeeffect">0</property>
   <filter id="filter17">
    <property name="version">0.1</property>
    <property name="mlt_service">frei0r.alphaspot</property>
    <property name="kdenlive_id">frei0r.alphaspot</property>
    <property name="Shape">0</property>
    <property name="Position X">00:00:00.000=0.487</property>
    <property name="Position Y">00:00:00.000=0.31</property>
    <property name="Size X">00:00:00.000=0.02</property>
    <property name="Size Y">00:00:00.000=0.164</property>
    <property name="Tilt">00:00:00.000=0.5</property>
    <property name="Transition width">00:00:00.000=0</property>
    <property name="Min">00:00:00.000=0</property>
    <property name="Max">00:00:00.000=1</property>
    <property name="Operation">1</property>
    <property name="kdenlive:collapsed">0</property>
   </filter>
  </entry>
  <entry producer="producer11" in="00:00:00.000" out="00:00:02.567">
   <property name="kdenlive:id">14</property>
   <property name="kdenlive:activeeffect">0</property>
   <filter id="filter18">
    <property name="version">0.1</property>
    <property name="mlt_service">frei0r.alphaspot</property>
    <property name="kdenlive_id">frei0r.alphaspot</property>
    <property name="Shape">0</property>
    <property name="Position X">00:00:00.000=0.487</property>
    <property name="Position Y">00:00:00.000=0.31</property>
    <property name="Size X">00:00:00.000=0.02</property>
    <property name="Size Y">00:00:00.000=0.164</property>
    <property name="Tilt">00:00:00.000=0.5</property>
    <property name="Transition width">00:00:00.000=0</property>
    <property name="Min">00:00:00.000=0</property>
    <property name="Max">00:00:00.000=1</property>
    <property name="Operation">1</property>
    <property name="kdenlive:collapsed">0</property>
   </filter>
  </entry>
  <entry producer="producer23" in="00:00:02.167" out="00:00:03.600">
   <property name="kdenlive:id">12</property>
   <property name="kdenlive:activeeffect">0</property>
   <filter id="filter19">
    <property name="version">0.1</property>
    <property name="mlt_service">frei0r.alphaspot</property>
    <property name="kdenlive_id">frei0r.alphaspot</property>
    <property name="Shape">0</property>
    <property name="Position X">00:00:02.167=0.487</property>
    <property name="Position Y">00:00:02.167=0.31</property>
    <property name="Size X">00:00:02.167=0.02</property>
    <property name="Size Y">00:00:02.167=0.164</property>
    <property name="Tilt">00:00:02.167=0.5</property>
    <property name="Transition width">00:00:02.167=0</property>
    <property name="Min">00:00:02.167=0</property>
    <property name="Max">00:00:02.167=1</property>
    <property name="Operation">1</property>
    <property name="kdenlive:collapsed">0</property>
   </filter>
  </entry>
  <entry producer="producer10" in="00:00:00.000" out="00:00:04.767">
   <property name="kdenlive:id">13</property>
   <property name="kdenlive:activeeffect">0</property>
   <filter id="filter20">
    <property name="version">0.1</property>
    <property name="mlt_service">frei0r.alphaspot</property>
    <property name="kdenlive_id">frei0r.alphaspot</property>
    <property name="Shape">0</property>
    <property name="Position X">00:00:00.000=0.487</property>
    <property name="Position Y">00:00:00.000=0.31</property>
    <property name="Size X">00:00:00.000=0.02</property>
    <property name="Size Y">00:00:00.000=0.164</property>
    <property name="Tilt">00:00:00.000=0.5</property>
    <property name="Transition width">00:00:00.000=0</property>
    <property name="Min">00:00:00.000=0</property>
    <property name="Max">00:00:00.000=1</property>
    <property name="Operation">1</property>
    <property name="kdenlive:collapsed">0</property>
   </filter>
  </entry>
  <entry producer="producer14" in="00:00:00.000" out="00:00:02.900">
   <property name="kdenlive:id">16</property>
   <property name="kdenlive:activeeffect">0</property>
   <filter id="filter21">
    <property name="version">0.1</property>
    <property name="mlt_service">frei0r.alphaspot</property>
    <property name="kdenlive_id">frei0r.alphaspot</property>
    <property name="Shape">0</property>
    <property name="Position X">00:00:00.000=0.487</property>
    <property name="Position Y">00:00:00.000=0.31</property>
    <property name="Size X">00:00:00.000=0.02</property>
    <property name="Size Y">00:00:00.000=0.164</property>
    <property name="Tilt">00:00:00.000=0.5</property>
    <property name="Transition width">00:00:00.000=0</property>
    <property name="Min">00:00:00.000=0</property>
    <property name="Max">00:00:00.000=1</property>
    <property name="Operation">1</property>
    <property name="kdenlive:collapsed">0</property>
   </filter>
  </entry>
  <entry producer="producer24" in="00:00:01.267" out="00:00:02.733">
   <property name="kdenlive:id">15</property>
   <filter id="filter22">
    <property name="version">0.1</property>
    <property name="mlt_service">frei0r.alphaspot</property>
    <property name="kdenlive_id">frei0r.alphaspot</property>
    <property name="Shape">0</property>
    <property name="Position X">00:00:01.267=0.487</property>
    <property name="Position Y">00:00:01.267=0.31</property>
    <property name="Size X">00:00:01.267=0.02</property>
    <property name="Size Y">00:00:01.267=0.164</property>
    <property name="Tilt">00:00:01.267=0.5</property>
    <property name="Transition width">00:00:01.267=0</property>
    <property name="Min">00:00:01.267=0</property>
    <property name="Max">00:00:01.267=1</property>
    <property name="Operation">1</property>
    <property name="kdenlive:collapsed">0</property>
   </filter>
  </entry>
  <entry producer="producer13" in="00:00:00.000" out="00:00:03.967">
   <property name="kdenlive:id">17</property>
   <filter id="filter23">
    <property name="version">0.1</property>
    <property name="mlt_service">frei0r.alphaspot</property>
    <property name="kdenlive_id">frei0r.alphaspot</property>
    <property name="Shape">0</property>
    <property name="Position X">00:00:00.000=0.487</property>
    <property name="Position Y">00:00:00.000=0.31</property>
    <property name="Size X">00:00:00.000=0.02</property>
    <property name="Size Y">00:00:00.000=0.164</property>
    <property name="Tilt">00:00:00.000=0.5</property>
    <property name="Transition width">00:00:00.000=0</property>
    <property name="Min">00:00:00.000=0</property>
    <property name="Max">00:00:00.000=1</property>
    <property name="Operation">1</property>
    <property name="kdenlive:collapsed">0</property>
   </filter>
  </entry>
 </playlist>
 <playlist id="playlist3"/>
 <tractor id="tractor1" in="00:00:00.000" out="00:01:05.700">
  <property name="kdenlive:trackheight">80</property>
  <property name="kdenlive:timeline_active">0</property>
  <property name="kdenlive:collapsed">0</property>
  <property name="kdenlive:thumbs_format"/>
  <property name="kdenlive:audio_rec"/>
  <track hide="audio" producer="playlist2"/>
  <track producer="playlist3"/>
 </tractor>
 <producer id="producer25" in="00:00:00.000" out="00:01:05.700">
  <property name="length">1972</property>
  <property name="eof">pause</property>
  <property name="resource">robotface.mp4</property>
  <property name="audio_index">1</property>
  <property name="video_index">0</property>
  <property name="mute_on_pause">0</property>
  <property name="mlt_service">avformat-novalidate</property>
  <property name="seekable">1</property>
  <property name="aspect_ratio">1</property>
  <property name="kdenlive:clipname"/>
  <property name="kdenlive:folderid">-1</property>
  <property name="kdenlive:id">10</property>
  <property name="kdenlive:file_size">5503917</property>
  <property name="kdenlive:file_hash">1e6634c7e3fec0ea7be8170015c6f333</property>
  <property name="kdenlive:audio_max">91</property>
  <property name="global_feed">1</property>
  <property name="xml">was here</property>
  <property name="meta.media.nb_streams">2</property>
  <property name="meta.media.0.stream.type">video</property>
  <property name="meta.media.0.stream.frame_rate">15</property>
  <property name="meta.media.0.stream.sample_aspect_ratio">0</property>
  <property name="meta.media.0.codec.width">1600</property>
  <property name="meta.media.0.codec.height">900</property>
  <property name="meta.media.0.codec.rotate">0</property>
  <property name="meta.media.0.codec.frame_rate">15</property>
  <property name="meta.media.0.codec.pix_fmt">yuv444p</property>
  <property name="meta.media.0.codec.sample_aspect_ratio">1</property>
  <property name="meta.media.0.codec.colorspace">709</property>
  <property name="meta.media.0.codec.name">h264</property>
  <property name="meta.media.0.codec.long_name">H.264 / AVC / MPEG-4 AVC / MPEG-4 part 10</property>
  <property name="meta.media.0.codec.bit_rate">634413</property>
  <property name="meta.attr.0.stream.creation_time.markup">2021-03-03T03:24:32.000000Z</property>
  <property name="meta.attr.0.stream.language.markup">eng</property>
  <property name="meta.attr.0.stream.handler_name.markup">VideoHandler</property>
  <property name="meta.media.1.stream.type">audio</property>
  <property name="meta.media.1.codec.sample_fmt">fltp</property>
  <property name="meta.media.1.codec.sample_rate">44100</property>
  <property name="meta.media.1.codec.channels">1</property>
  <property name="meta.media.1.codec.name">mp3float</property>
  <property name="meta.media.1.codec.long_name">MP3 (MPEG audio layer 3)</property>
  <property name="meta.media.1.codec.bit_rate">31850</property>
  <property name="meta.attr.1.stream.creation_time.markup">2021-03-03T03:24:32.000000Z</property>
  <property name="meta.attr.1.stream.language.markup">eng</property>
  <property name="meta.attr.1.stream.handler_name.markup">SoundHandler</property>
  <property name="meta.attr.major_brand.markup">mp42</property>
  <property name="meta.attr.minor_version.markup">0</property>
  <property name="meta.attr.compatible_brands.markup">mp42mp41isomiso2</property>
  <property name="meta.attr.creation_time.markup">2021-03-03T03:24:32.000000Z</property>
  <property name="meta.attr.encoder.markup">x264</property>
  <property name="meta.media.sample_aspect_num">1</property>
  <property name="meta.media.sample_aspect_den">1</property>
  <property name="meta.media.frame_rate_num">15</property>
  <property name="meta.media.frame_rate_den">1</property>
  <property name="meta.media.colorspace">709</property>
  <property name="meta.media.color_trc">2</property>
  <property name="meta.media.width">1600</property>
  <property name="meta.media.height">900</property>
  <property name="meta.media.color_range">mpeg</property>
  <property name="meta.media.top_field_first">0</property>
  <property name="meta.media.progressive">1</property>
  <property name="set.test_audio">1</property>
  <property name="set.test_image">0</property>
 </producer>
 <producer id="producer26" in="00:00:00.000" out="00:00:15.100">
  <property name="length">454</property>
  <property name="eof">pause</property>
  <property name="resource">ohno.mp4</property>
  <property name="audio_index">-1</property>
  <property name="video_index">0</property>
  <property name="mute_on_pause">0</property>
  <property name="mlt_service">avformat-novalidate</property>
  <property name="seekable">1</property>
  <property name="aspect_ratio">1</property>
  <property name="kdenlive:clipname"/>
  <property name="kdenlive:folderid">-1</property>
  <property name="kdenlive:id">18</property>
  <property name="kdenlive:file_size">1250594</property>
  <property name="kdenlive:file_hash">3d0d89be68f99714f7d79329138d06ba</property>
  <property name="global_feed">1</property>
  <property name="xml">was here</property>
  <property name="meta.media.nb_streams">1</property>
  <property name="meta.media.0.stream.type">video</property>
  <property name="meta.media.0.stream.frame_rate">15</property>
  <property name="meta.media.0.stream.sample_aspect_ratio">0</property>
  <property name="meta.media.0.codec.width">1600</property>
  <property name="meta.media.0.codec.height">900</property>
  <property name="meta.media.0.codec.rotate">0</property>
  <property name="meta.media.0.codec.frame_rate">15</property>
  <property name="meta.media.0.codec.pix_fmt">yuv444p</property>
  <property name="meta.media.0.codec.sample_aspect_ratio">1</property>
  <property name="meta.media.0.codec.colorspace">709</property>
  <property name="meta.media.0.codec.name">h264</property>
  <property name="meta.media.0.codec.long_name">H.264 / AVC / MPEG-4 AVC / MPEG-4 part 10</property>
  <property name="meta.media.0.codec.bit_rate">659698</property>
  <property name="meta.attr.0.stream.creation_time.markup">2021-03-18T01:53:55.000000Z</property>
  <property name="meta.attr.0.stream.language.markup">eng</property>
  <property name="meta.attr.0.stream.handler_name.markup">VideoHandler</property>
  <property name="meta.attr.major_brand.markup">mp42</property>
  <property name="meta.attr.minor_version.markup">0</property>
  <property name="meta.attr.compatible_brands.markup">mp42mp41isomiso2</property>
  <property name="meta.attr.creation_time.markup">2021-03-18T01:53:55.000000Z</property>
  <property name="meta.attr.encoder.markup">x264</property>
  <property name="meta.media.sample_aspect_num">1</property>
  <property name="meta.media.sample_aspect_den">1</property>
  <property name="meta.media.frame_rate_num">15</property>
  <property name="meta.media.frame_rate_den">1</property>
  <property name="meta.media.colorspace">709</property>
  <property name="meta.media.color_trc">2</property>
  <property name="meta.media.width">1600</property>
  <property name="meta.media.height">900</property>
  <property name="meta.media.color_range">mpeg</property>
  <property name="meta.media.top_field_first">0</property>
  <property name="meta.media.progressive">1</property>
  <property name="set.test_audio">1</property>
  <property name="set.test_image">0</property>
 </producer>
 <playlist id="playlist4">
  <entry producer="producer25" in="00:00:00.000" out="00:00:59.967">
   <property name="kdenlive:id">10</property>
   <property name="kdenlive:activeeffect">1</property>
   <filter id="filter24">
    <property name="mlt_service">crop</property>
    <property name="kdenlive_id">crop</property>
    <property name="top">770</property>
    <property name="left">300</property>
    <property name="bottom">90</property>
    <property name="right">300</property>
    <property name="center">0</property>
    <property name="center_bias">0</property>
    <property name="use_profile">0</property>
    <property name="kdenlive:collapsed">0</property>
   </filter>
   <filter id="filter25">
    <property name="rotate_center">1</property>
    <property name="mlt_service">qtblend</property>
    <property name="kdenlive_id">qtblend</property>
    <property name="rect">00:00:00.000=0 500 1920 1080 1.000000;00:00:23.400=0 500 1920 1080 0.487500</property>
    <property name="rotation">00:00:00.000=0;00:00:23.400=0</property>
    <property name="compositing">0</property>
    <property name="distort">0</property>
    <property name="kdenlive:collapsed">0</property>
   </filter>
  </entry>
  <entry producer="producer26" in="00:00:09.067" out="00:00:15.100">
   <property name="kdenlive:id">18</property>
   <filter id="filter26">
    <property name="mlt_service">crop</property>
    <property name="kdenlive_id">crop</property>
    <property name="top">770</property>
    <property name="left">300</property>
    <property name="bottom">90</property>
    <property name="right">300</property>
    <property name="center">0</property>
    <property name="center_bias">0</property>
    <property name="use_profile">0</property>
    <property name="kdenlive:collapsed">0</property>
   </filter>
   <filter id="filter27">
    <property name="rotate_center">1</property>
    <property name="mlt_service">qtblend</property>
    <property name="kdenlive_id">qtblend</property>
    <property name="rect">00:00:09.067=0 500 1920 1080 1.000000;00:00:15.133=</property>
    <property name="rotation">00:00:09.067=0;00:00:15.133=</property>
    <property name="compositing">0</property>
    <property name="distort">0</property>
    <property name="kdenlive:collapsed">0</property>
   </filter>
  </entry>
 </playlist>
 <playlist id="playlist5"/>
 <tractor id="tractor2" in="00:00:00.000" out="00:01:06.033">
  <property name="kdenlive:trackheight">80</property>
  <property name="kdenlive:timeline_active">1</property>
  <property name="kdenlive:collapsed">0</property>
  <property name="kdenlive:thumbs_format"/>
  <property name="kdenlive:audio_rec"/>
  <track hide="audio" producer="playlist4"/>
  <track producer="playlist5"/>
 </tractor>
 <producer id="producer27" in="00:00:00.000" out="00:01:05.700">
  <property name="length">1972</property>
  <property name="eof">pause</property>
  <property name="resource">robotface.mp4</property>
  <property name="audio_index">1</property>
  <property name="video_index">0</property>
  <property name="mute_on_pause">0</property>
  <property name="mlt_service">avformat-novalidate</property>
  <property name="seekable">1</property>
  <property name="aspect_ratio">1</property>
  <property name="kdenlive:clipname"/>
  <property name="kdenlive:folderid">-1</property>
  <property name="kdenlive:id">10</property>
  <property name="kdenlive:file_size">5503917</property>
  <property name="kdenlive:file_hash">1e6634c7e3fec0ea7be8170015c6f333</property>
  <property name="kdenlive:audio_max">91</property>
  <property name="global_feed">1</property>
  <property name="xml">was here</property>
  <property name="meta.media.nb_streams">2</property>
  <property name="meta.media.0.stream.type">video</property>
  <property name="meta.media.0.stream.frame_rate">15</property>
  <property name="meta.media.0.stream.sample_aspect_ratio">0</property>
  <property name="meta.media.0.codec.width">1600</property>
  <property name="meta.media.0.codec.height">900</property>
  <property name="meta.media.0.codec.rotate">0</property>
  <property name="meta.media.0.codec.frame_rate">15</property>
  <property name="meta.media.0.codec.pix_fmt">yuv444p</property>
  <property name="meta.media.0.codec.sample_aspect_ratio">1</property>
  <property name="meta.media.0.codec.colorspace">709</property>
  <property name="meta.media.0.codec.name">h264</property>
  <property name="meta.media.0.codec.long_name">H.264 / AVC / MPEG-4 AVC / MPEG-4 part 10</property>
  <property name="meta.media.0.codec.bit_rate">634413</property>
  <property name="meta.attr.0.stream.creation_time.markup">2021-03-03T03:24:32.000000Z</property>
  <property name="meta.attr.0.stream.language.markup">eng</property>
  <property name="meta.attr.0.stream.handler_name.markup">VideoHandler</property>
  <property name="meta.media.1.stream.type">audio</property>
  <property name="meta.media.1.codec.sample_fmt">fltp</property>
  <property name="meta.media.1.codec.sample_rate">44100</property>
  <property name="meta.media.1.codec.channels">1</property>
  <property name="meta.media.1.codec.name">mp3float</property>
  <property name="meta.media.1.codec.long_name">MP3 (MPEG audio layer 3)</property>
  <property name="meta.media.1.codec.bit_rate">31850</property>
  <property name="meta.attr.1.stream.creation_time.markup">2021-03-03T03:24:32.000000Z</property>
  <property name="meta.attr.1.stream.language.markup">eng</property>
  <property name="meta.attr.1.stream.handler_name.markup">SoundHandler</property>
  <property name="meta.attr.major_brand.markup">mp42</property>
  <property name="meta.attr.minor_version.markup">0</property>
  <property name="meta.attr.compatible_brands.markup">mp42mp41isomiso2</property>
  <property name="meta.attr.creation_time.markup">2021-03-03T03:24:32.000000Z</property>
  <property name="meta.attr.encoder.markup">x264</property>
  <property name="meta.media.sample_aspect_num">1</property>
  <property name="meta.media.sample_aspect_den">1</property>
  <property name="meta.media.frame_rate_num">15</property>
  <property name="meta.media.frame_rate_den">1</property>
  <property name="meta.media.colorspace">709</property>
  <property name="meta.media.color_trc">2</property>
  <property name="meta.media.width">1600</property>
  <property name="meta.media.height">900</property>
  <property name="meta.media.color_range">mpeg</property>
  <property name="meta.media.top_field_first">0</property>
  <property name="meta.media.progressive">1</property>
  <property name="set.test_audio">1</property>
  <property name="set.test_image">0</property>
 </producer>
 <producer id="producer28" in="00:00:00.000" out="00:00:15.100">
  <property name="length">454</property>
  <property name="eof">pause</property>
  <property name="resource">ohno.mp4</property>
  <property name="audio_index">-1</property>
  <property name="video_index">0</property>
  <property name="mute_on_pause">0</property>
  <property name="mlt_service">avformat-novalidate</property>
  <property name="seekable">1</property>
  <property name="aspect_ratio">1</property>
  <property name="kdenlive:clipname"/>
  <property name="kdenlive:folderid">-1</property>
  <property name="kdenlive:id">18</property>
  <property name="kdenlive:file_size">1250594</property>
  <property name="kdenlive:file_hash">3d0d89be68f99714f7d79329138d06ba</property>
  <property name="global_feed">1</property>
  <property name="xml">was here</property>
  <property name="meta.media.nb_streams">1</property>
  <property name="meta.media.0.stream.type">video</property>
  <property name="meta.media.0.stream.frame_rate">15</property>
  <property name="meta.media.0.stream.sample_aspect_ratio">0</property>
  <property name="meta.media.0.codec.width">1600</property>
  <property name="meta.media.0.codec.height">900</property>
  <property name="meta.media.0.codec.rotate">0</property>
  <property name="meta.media.0.codec.frame_rate">15</property>
  <property name="meta.media.0.codec.pix_fmt">yuv444p</property>
  <property name="meta.media.0.codec.sample_aspect_ratio">1</property>
  <property name="meta.media.0.codec.colorspace">709</property>
  <property name="meta.media.0.codec.name">h264</property>
  <property name="meta.media.0.codec.long_name">H.264 / AVC / MPEG-4 AVC / MPEG-4 part 10</property>
  <property name="meta.media.0.codec.bit_rate">659698</property>
  <property name="meta.attr.0.stream.creation_time.markup">2021-03-18T01:53:55.000000Z</property>
  <property name="meta.attr.0.stream.language.markup">eng</property>
  <property name="meta.attr.0.stream.handler_name.markup">VideoHandler</property>
  <property name="meta.attr.major_brand.markup">mp42</property>
  <property name="meta.attr.minor_version.markup">0</property>
  <property name="meta.attr.compatible_brands.markup">mp42mp41isomiso2</property>
  <property name="meta.attr.creation_time.markup">2021-03-18T01:53:55.000000Z</property>
  <property name="meta.attr.encoder.markup">x264</property>
  <property name="meta.media.sample_aspect_num">1</property>
  <property name="meta.media.sample_aspect_den">1</property>
  <property name="meta.media.frame_rate_num">15</property>
  <property name="meta.media.frame_rate_den">1</property>
  <property name="meta.media.colorspace">709</property>
  <property name="meta.media.color_trc">2</property>
  <property name="meta.media.width">1600</property>
  <property name="meta.media.height">900</property>
  <property name="meta.media.color_range">mpeg</property>
  <property name="meta.media.top_field_first">0</property>
  <property name="meta.media.progressive">1</property>
  <property name="set.test_audio">1</property>
  <property name="set.test_image">0</property>
 </producer>
 <playlist id="playlist6">
  <entry producer="producer27" in="00:00:00.000" out="00:00:59.967">
   <property name="kdenlive:id">10</property>
   <filter id="filter28">
    <property name="rotate_center">1</property>
    <property name="mlt_service">qtblend</property>
    <property name="kdenlive_id">qtblend</property>
    <property name="rect">00:00:00.000=645 10 576 324 1.000000</property>
    <property name="rotation">00:00:00.000=0</property>
    <property name="compositing">0</property>
    <property name="distort">0</property>
    <property name="kdenlive:collapsed">0</property>
   </filter>
   <filter id="filter29">
    <property name="mlt_service">crop</property>
    <property name="kdenlive_id">crop</property>
    <property name="top">0</property>
    <property name="left">220</property>
    <property name="bottom">225</property>
    <property name="right">220</property>
    <property name="center">0</property>
    <property name="center_bias">0</property>
    <property name="use_profile">0</property>
    <property name="kdenlive:collapsed">0</property>
   </filter>
  </entry>
  <entry producer="producer28" in="00:00:09.067" out="00:00:15.100">
   <property name="kdenlive:id">18</property>
   <filter id="filter30">
    <property name="rotate_center">1</property>
    <property name="mlt_service">qtblend</property>
    <property name="kdenlive_id">qtblend</property>
    <property name="rect">00:00:09.067=645 10 576 324 1.000000</property>
    <property name="rotation">00:00:09.067=0</property>
    <property name="compositing">0</property>
    <property name="distort">0</property>
    <property name="kdenlive:collapsed">0</property>
   </filter>
   <filter id="filter31">
    <property name="mlt_service">crop</property>
    <property name="kdenlive_id">crop</property>
    <property name="top">0</property>
    <property name="left">220</property>
    <property name="bottom">225</property>
    <property name="right">220</property>
    <property name="center">0</property>
    <property name="center_bias">0</property>
    <property name="use_profile">0</property>
    <property name="kdenlive:collapsed">0</property>
   </filter>
  </entry>
 </playlist>
 <playlist id="playlist7"/>
 <tractor id="tractor3" in="00:00:00.000" out="00:01:06.033">
  <property name="kdenlive:trackheight">80</property>
  <property name="kdenlive:timeline_active">0</property>
  <property name="kdenlive:collapsed">0</property>
  <property name="kdenlive:thumbs_format"/>
  <property name="kdenlive:audio_rec"/>
  <track hide="audio" producer="playlist6"/>
  <track producer="playlist7"/>
 </tractor>
 <tractor id="tractor4" global_feed="1" in="00:00:00.000" out="00:17:46.067">
  <track producer="black_track"/>
  <track producer="tractor0"/>
  <track producer="tractor1"/>
  <track producer="tractor2"/>
  <track producer="tractor3"/>
  <transition id="transition0">
   <property name="a_track">0</property>
   <property name="b_track">1</property>
   <property name="mlt_service">mix</property>
   <property name="kdenlive_id">mix</property>
   <property name="internal_added">237</property>
   <property name="always_active">1</property>
   <property name="accepts_blanks">1</property>
   <property name="sum">1</property>
  </transition>
  <transition id="transition1">
   <property name="a_track">0</property>
   <property name="b_track">2</property>
   <property name="compositing">0</property>
   <property name="distort">0</property>
   <property name="rotate_center">0</property>
   <property name="mlt_service">qtblend</property>
   <property name="kdenlive_id">qtblend</property>
   <property name="internal_added">237</property>
   <property name="always_active">1</property>
  </transition>
  <transition id="transition2">
   <property name="a_track">0</property>
   <property name="b_track">3</property>
   <property name="compositing">0</property>
   <property name="distort">0</property>
   <property name="rotate_center">0</property>
   <property name="mlt_service">qtblend</property>
   <property name="kdenlive_id">qtblend</property>
   <property name="internal_added">237</property>
   <property name="always_active">1</property>
  </transition>
  <transition id="transition3">
   <property name="a_track">0</property>
   <property name="b_track">4</property>
   <property name="compositing">0</property>
   <property name="distort">0</property>
   <property name="rotate_center">0</property>
   <property name="mlt_service">qtblend</property>
   <property name="kdenlive_id">qtblend</property>
   <property name="internal_added">237</property>
   <property name="always_active">1</property>
  </transition>
  <filter id="filter32">
   <property name="window">75</property>
   <property name="max_gain">20dB</property>
   <property name="mlt_service">volume</property>
   <property name="internal_added">237</property>
   <property name="disable">1</property>
  </filter>
  <filter id="filter33">
   <property name="channel">-1</property>
   <property name="mlt_service">panner</property>
   <property name="internal_added">237</property>
   <property name="start">0.5</property>
   <property name="disable">1</property>
  </filter>
  <filter id="filter34">
   <property name="iec_scale">0</property>
   <property name="mlt_service">audiolevel</property>
   <property name="disable">1</property>
  </filter>
 </tractor>
</mlt>
